name 900006 ik
datacolumns 165
datarows 4
range 0.4333333333333339 0.4583333333333339
cursor 1.0 1.0 0.0
keys m_key
wrap
enforce_loops no
enforce_constraints no
calc_derivatives 0.008333
event_color 1.000000 0.000000 1.000000
endheader

time	calcn_r_tx	calcn_r_ty	calcn_r_tz	calcn_r_r1	calcn_r_r2	calcn_r_r3	calcn_l_tx	calcn_l_ty	calcn_l_tz	calcn_l_r1	calcn_l_r2	calcn_l_r3	pelvis_tz	pelvis_tx	pelvis_ty	pelvis_tilt	pelvis_list	pelvis_rotation	hip_flexion_r	hip_adduction_r	hip_rotation_r	knee_angle_r	ankle_angle_r	subtalar_angle_r	mtp_angle_r	hip_flexion_l	hip_adduction_l	hip_rotation_l	knee_angle_l	ankle_angle_l	subtalar_angle_l	mtp_angle_l	lumbar_extension	lumbar_bending	lumbar_rotation	ground_force_px	ground_force_py	ground_force_pz	ground_force_vx	ground_force_vy	ground_force_vz	ground_force_px	ground_force_py	ground_force_pz	ground_force_vx	ground_force_vy	ground_force_vz	ground_torque_x	ground_torque_y	ground_torque_z	ground_torque_x	ground_torque_y	ground_torque_z	 midhip_px	 midhip_py	 midhip_pz	 hip_r_px	 hip_r_py	 hip_r_pz	 hip_l_px	 hip_l_py	 hip_l_pz	 knee_r_px	 knee_r_py	 knee_r_pz	 knee_l_px	 knee_l_py	 knee_l_pz	 ankle_r_px	 ankle_r_py	 ankle_r_pz	 ankle_l_px	 ankle_l_py	 ankle_l_pz	 midasis_px	 midasis_py	 midasis_pz	 asis_r_px	 asis_r_py	 asis_r_pz	 asis_l_px	 asis_l_py	 asis_l_pz	 psis_r_px	 psis_r_py	 psis_r_pz	 psis_l_px	 psis_l_py	 psis_l_pz	 epicondLat_r_px	 epicondLat_r_py	 epicondLat_r_pz	 epicondLat_l_px	 epicondLat_l_py	 epicondLat_l_pz	 epicondMed_r_px	 epicondMed_r_py	 epicondMed_r_pz	 epicondMed_l_px	 epicondMed_l_py	 epicondMed_l_pz	 malleolusLat_r_px	 malleolusLat_r_py	 malleolusLat_r_pz	 malleolusLat_l_px	 malleolusLat_l_py	 malleolusLat_l_pz	 malleolusMedv_r_px	 malleolusMedv_r_py	 malleolusMedv_r_pz	 malleolusMedv_l_px	 malleolusMedv_l_py	 malleolusMedv_l_pz	 neck_px	 neck_py	 neck_pz	 subclavicle_r_px	 subclavicle_r_py	 subclavicle_r_pz	 subclavicle_l_px	 subclavicle_l_py	 subclavicle_l_pz	 sternalnotch_px	 sternalnotch_py	 sternalnotch_pz	 xyphoidprocess_px	 xyphoidprocess_py	 xyphoidprocess_pz	 thighwand_r_px	 thighwand_r_py	 thighwand_r_pz	 thighwand_l_px	 thighwand_l_py	 thighwand_l_pz	 upperleg1_r_px	 upperleg1_r_py	 upperleg1_r_pz	 upperleg1_l_px	 upperleg1_l_py	 upperleg1_l_pz	 upperleg2_r_px	 upperleg2_r_py	 upperleg2_r_pz	 upperleg2_l_px	 upperleg2_l_py	 upperleg2_l_pz	 shankwand_r_px	 shankwand_r_py	 shankwand_r_pz	 shankwand_l_px	 shankwand_l_py	 shankwand_l_pz	 lowerleg1_r_px	 lowerleg1_r_py	 lowerleg1_r_pz	 lowerleg1_l_px	 lowerleg1_l_py	 lowerleg1_l_pz	 toe_r_px	 toe_r_py	 toe_r_pz	 toe_l_px	 toe_l_py	 toe_l_pz	
      0.4333333333333339	      0.0059766299346770	      0.0516023517737400	     -0.1849956784096374	     -4.0250405974428860	    -18.1896279257477470	    -11.7897252949289210	      0.5854654931967537	      0.0506803698975724	     -0.2871228959326976	     -1.6095615748916872	      1.0183176545009383	     26.7671827231201970	     -0.2062436094492360	      0.3675268116177213	      0.8013072170781959	      0.4041110926567403	     -0.6737030289912093	     -7.9326086590407741	    -15.7242154236057510	      1.0887563589588967	     -8.4860173516494015	     -8.6615336938423546	     13.4534776268548610	      0.0000000000000000	      0.0000000000000000	     27.3177992599790120	     -2.9524736828692317	     -9.0408048175191738	     -4.6706419436660012	      3.6597262351313398	      0.0000000000000000	      0.0000000000000000	     -8.9577338210448545	      3.4708736281576318	      2.6984473280512775	      0.1746233183584429	      0.0000000000000000	     -0.1495430800837639	     69.3223766277891830	    548.6114067739024400	    -30.8935672762101450	      0.6656630872297285	      0.0000000000000000	     -0.2599192495766322	     -0.0000000338948637	      0.0000001463386981	     -0.0000000115769159	      0.0000000000000000	      0.6090476067322179	      0.0000000000000000	      0.0000000000000000	     -0.0000000001483820	      0.0000000000000000	      0.3269337582203614	      0.7435446577159243	     -0.2151148069941709	      0.3124886485478006	      0.7409887542727847	     -0.1595922948577626	      0.3413783736069574	      0.7460998120681851	     -0.2706373302459210	      0.1652800955684018	      0.4281796818907743	     -0.1520762232781310	      0.4489416818364806	      0.3989773003540738	     -0.2784105123967552	      0.0607118285736153	      0.0767402056745292	     -0.1752109487682765	      0.6200377021182233	      0.0891801806336936	     -0.2884507007900539	      0.3626955064762327	      0.8152824435556443	     -0.2033048105086736	      0.3501739308719004	      0.8158910985248802	     -0.0937485223778679	      0.3752165721384995	      0.8146737392797797	     -0.3128610632201960	      0.1846400561582280	      0.8498969427650314	     -0.1966970789265521	      0.1906771015819120	      0.8455637777709739	     -0.2531233914985435	      0.1837645584569404	      0.4133015711758654	     -0.0933656947674780	      0.4716561327495990	      0.4117134641928923	     -0.3372034112405159	      0.1986285970811122	      0.4156110557803551	     -0.2139540300713995	      0.4680037596380681	      0.4016343584791733	     -0.2118622357501761	      0.0490116352025966	      0.0786520422941991	     -0.1396352462935463	      0.6079240280196965	      0.0845090304021757	     -0.3225594526311721	      0.0653908007566279	      0.0738931637337310	     -0.2085210141984898	      0.6214577877438652	      0.0939933562708217	     -0.2554797396692635	      0.2628042131101644	      1.2408512983347881	     -0.2015439233127032	      0.3649661263115751	      1.1582741063030100	     -0.1514895251591955	      0.3726443212998762	      1.1646602938835779	     -0.2562818524398823	      0.3661897470278481	      1.1616207759006549	     -0.2071597314656327	      0.3668528687593713	      1.0598047563928685	     -0.2158449311605222	      0.3458428098451680	      0.5146834507243892	     -0.0919294937817323	      0.5025919512416839	      0.5807557944883128	     -0.3478503157415258	      0.2985906758047823	      0.5690218576411729	     -0.0700855049694200	      0.4622778386457920	      0.6115610489240558	     -0.2847729543271658	      0.2712779885514550	      0.5170180103579730	     -0.0782996780506765	      0.4793017009560789	      0.5567597415537585	     -0.2751566059533991	      0.2074631089427913	      0.1489455705024774	     -0.1233965418994769	      0.5460144108767400	      0.1784592774773494	     -0.4089009551811992	      0.1336155762034420	      0.1609572796831555	     -0.1527714817686747	      0.5647562390760234	      0.1758288649124310	     -0.3321012972039799	      0.1331186071772461	      0.0485527250744071	     -0.1522325231676194	      0.7069565164601074	      0.1129247605322522	     -0.2977929581344052	
      0.4416666666666672	      0.0070971634995360	      0.0552982409259031	     -0.1848869120468851	     -4.3844311034265253	    -18.2826143579648530	    -13.0827367930466880	      0.6001037877515357	      0.0493857893974277	     -0.2862222959510845	     -1.6237602773044728	      1.1509374018260168	     27.1725169294081290	     -0.2052033751377181	      0.3798950747962367	      0.7996445720387158	      0.5019815098840463	     -0.7738678110252342	     -8.0425476259136541	    -16.2921135143932360	      0.9855566947031663	     -8.5264137544402860	     -9.6663843991494804	     13.7040409366063120	      0.0000000000000000	      0.0000000000000000	     27.3730997513661160	     -3.1257167221403570	     -9.2651381171168907	     -4.7212438479822314	      3.9485281254122135	      0.0000000000000000	      0.0000000000000000	     -8.9883858732471378	      3.4955790392148463	      2.8966214596473208	      0.1766281015783542	      0.0000000000000000	     -0.1494369199129831	     76.6482451238744740	    551.7510145387917600	    -31.2328558924188330	      0.6695513934087011	      0.0000000000000000	     -0.2605081805011937	     -0.0000000794700115	      0.0000003431067317	     -0.0000000271432396	      0.0000000000000000	      0.3091855585045323	      0.0000000000000000	      0.0000000000000000	     -0.0000000003478891	      0.0000000000000000	      0.3395523740190556	      0.7418703211640796	     -0.2146642879740053	      0.3249883089357071	      0.7394275059321220	     -0.1591675649280469	      0.3541160390454001	      0.7443122780933286	     -0.2701609072889688	      0.1754240051261172	      0.4274621053244570	     -0.1510743559602001	      0.4627990865631204	      0.3974989783482001	     -0.2775959130816049	      0.0619966020322074	      0.0790600171969291	     -0.1740634304028969	      0.6341888604926355	      0.0881702473985797	     -0.2871662873041442	      0.3751928454987947	      0.8136978363611123	     -0.2029872881683887	      0.3624318447539375	      0.8145306682795411	     -0.0934380222022558	      0.3879532444811671	      0.8128648530425642	     -0.3125366556523046	      0.1971326877219909	      0.8480496647147219	     -0.1972472421750667	      0.2032203534144486	      0.8436536103956215	     -0.2536496783339502	      0.1935641219458209	      0.4125634792932283	     -0.0924601941463889	      0.4851696101975798	      0.4106010941152024	     -0.3362789291669623	      0.2089398951419728	      0.4142789285721715	     -0.2129713509771927	      0.4824567830605618	      0.4011089292774913	     -0.2099668423285364	      0.0506790121175165	      0.0811400293734702	     -0.1383740752445399	      0.6221048342055005	      0.0834517402055016	     -0.3212795169200625	      0.0662380084610582	      0.0760770444577650	     -0.2074063376370088	      0.6354737538650724	      0.0929981860423235	     -0.2541677814691088	      0.2740784771876054	      1.2391744492988419	     -0.2024214351632411	      0.3763370915549342	      1.1568134988640046	     -0.1520692009919644	      0.3839350027711597	      1.1630574022713600	     -0.2570907061846799	      0.3775176310549928	      1.1600806849585181	     -0.2078521226993362	      0.3783023143133615	      1.0582516457300561	     -0.2163770871297747	      0.3565656097492551	      0.5128847685446111	     -0.0908709943662733	      0.5157438125360772	      0.5793982785922422	     -0.3472630021108670	      0.3095011450876293	      0.5676292840369432	     -0.0694635183682541	      0.4755886420721313	      0.6105287934127630	     -0.2842200924370726	      0.2818212175693488	      0.5157749418993287	     -0.0775338414854619	      0.4928393386940588	      0.5559520501078318	     -0.2743427063462899	      0.2110720010557549	      0.1475211091570628	     -0.1233672104278627	      0.5600990890503322	      0.1772155026564315	     -0.4077956669271985	      0.1369040356337265	      0.1613421205036524	     -0.1521342362392883	      0.5786903889888732	      0.1746971760078159	     -0.3309012394294585	      0.1338719976778775	      0.0492977709613822	     -0.1515895558431306	      0.7210923342416893	      0.1125110497905274	     -0.2972068432617279	
      0.4500000000000006	      0.0084450444093453	      0.0596912813393177	     -0.1843309721414521	     -4.7849150809852183	    -18.2623289288396900	    -14.5766805453222970	      0.6130258788838455	      0.0477391030408768	     -0.2847724156857920	     -1.6709610021082719	      1.0993437556560264	     27.2662490972913010	     -0.2049313498371526	      0.3924842220278922	      0.7982176508184974	      0.5769233490062218	     -0.8990706260490664	     -8.1157167208610552	    -16.7826101666891820	      0.8260337909745671	     -8.5341302812875988	    -10.7710269800180050	     13.7874008899487990	      0.0000000000000000	      0.0000000000000000	     27.4356575715645620	     -3.1965821654799993	     -9.2890854011209196	     -5.0011600164914114	      4.1826094277022818	      0.0000000000000000	      0.0000000000000000	     -8.9851750446294645	      3.4898946088701748	      3.0359754378501504	      0.1786045823974747	      0.0000000000000000	     -0.1493279698723332	     83.6866497383496150	    549.7747724221571800	    -31.1248159858833060	      0.6739766853351394	      0.0000000000000000	     -0.2611098606482109	      0.0000002765200310	     -0.0000011938764649	      0.0000000944450215	      0.0000000000000000	      0.0376294616975737	      0.0000000000000000	      0.0000000000000000	      0.0000000012102227	      0.0000000000000000	      0.3523577825255302	      0.7404171010763671	     -0.2142915962435613	      0.3376886827409775	      0.7380376363358590	     -0.1588197247958763	      0.3670266389334793	      0.7427957015871377	     -0.2697632756281650	      0.1857523637845580	      0.4268036093543882	     -0.1501196663974340	      0.4767888007144910	      0.3967187276901564	     -0.2768201614626357	      0.0635495618807693	      0.0817522650374732	     -0.1728036921883374	      0.6469604847205732	      0.0866733935524170	     -0.2854185933762949	      0.3878696784469003	      0.8123107834883109	     -0.2027099781447459	      0.3749026880017465	      0.8132791614884765	     -0.0931771745605922	      0.4008360544370646	      0.8113421549206665	     -0.3122429766841941	      0.2098290584118908	      0.8463862246032943	     -0.1978325098718744	      0.2159984516560238	      0.8419682282883415	     -0.2541753177930859	      0.2038801164634619	      0.4118173768530881	     -0.0915707417392886	      0.4988553083200747	      0.4096144851271341	     -0.3354310947730961	      0.2192639368243255	      0.4128866349290971	     -0.2116432843570395	      0.4964123903548775	      0.4006122351658295	     -0.2088297601326105	      0.0526320136711357	      0.0840001949163777	     -0.1370005275102119	      0.6348841701413482	      0.0819052211373145	     -0.3195297113955077	      0.0672801286546020	      0.0787054612444741	     -0.2061888167103103	      0.6480355477931227	      0.0913933784168621	     -0.2523571861922140	      0.2854698323210931	      1.2376793809138962	     -0.2033636998621979	      0.3878837651844245	      1.1555661456079764	     -0.1527640675169562	      0.3954154689833049	      1.1616914571651673	     -0.2580134535832245	      0.3890287287712332	      1.1587649207300823	     -0.2086594469265274	      0.3899893759346692	      1.0569256329031147	     -0.2170435336005282	      0.3677376175371294	      0.5112433941800194	     -0.0899659117578123	      0.5291899706480000	      0.5784957984753592	     -0.3464638187141238	      0.3207583866747302	      0.5663897468811674	     -0.0689471636359770	      0.4888940563285635	      0.6098693680856067	     -0.2834640978244524	      0.2926868424282211	      0.5146622358592025	     -0.0767387597753783	      0.5062938021660139	      0.5554099650661893	     -0.2735056209997255	      0.2149105352394459	      0.1462166518671607	     -0.1233001286057929	      0.5731938176114213	      0.1755654350822103	     -0.4063407874059437	      0.1404295452826078	      0.1619461539805241	     -0.1513721380743769	      0.5915292665123716	      0.1730457066519199	     -0.3292768750270813	      0.1348230479072391	      0.0501540264040861	     -0.1508846350833134	      0.7338489908481662	      0.1111797154023174	     -0.2959656924912009	
      0.4583333333333339	      0.0100728748644109	      0.0646602637002583	     -0.1836082727679176	     -5.2094141730613517	    -18.2175613766975670	    -16.2447317531769680	      0.6244330364903610	      0.0458339984999704	     -0.2831710734454526	     -1.6442516750978415	      0.7728259926702786	     27.1295508334660590	     -0.2048789311332209	      0.4052511696256899	      0.7970463336571005	      0.6340853598844410	     -0.9794690749706004	     -8.2425990096294264	    -17.1951322516465940	      0.5580996023068771	     -8.5195787092161712	    -11.9562916366483720	     13.7190402412754240	      0.0000000000000000	      0.0000000000000000	     27.4670017712664920	     -3.1845719380333128	     -9.1062052802798075	     -5.4451824041042292	      4.4103559885806733	      0.0000000000000000	      0.0000000000000000	     -8.9310485490502618	      3.4492858488364093	      3.1882058384965379	      0.1806501583193842	      0.0000000000000000	     -0.1492323900627925	     90.0729075583576280	    542.1961273619016300	    -30.4607312882085420	      0.6781617969443315	      0.0000000000000000	     -0.2615166298047000	      0.0000004264640947	     -0.0000018415681892	      0.0000001456370751	      0.0000000000000000	     -0.1775202482523712	      0.0000000000000000	      0.0000000000000000	      0.0000000018619594	      0.0000000000000000	      0.3653552937908381	      0.7391806350839567	     -0.2140388981550497	      0.3505988068100252	      0.7368093312222713	     -0.1585899889572253	      0.3801117052809899	      0.7415511725434745	     -0.2694875870911774	      0.1964613969983466	      0.4261622497462495	     -0.1492245224134103	      0.4906842134400806	      0.3965617642587042	     -0.2760367036912166	      0.0654296793772098	      0.0848408346654377	     -0.1714575341236844	      0.6584691424022168	      0.0847921770477870	     -0.2832844067297333	      0.4007369948812594	      0.8111128131853885	     -0.2025004115593121	      0.3876051397426095	      0.8121199380319720	     -0.0929874663739917	      0.4138683149496525	      0.8101053555771596	     -0.3120135803776657	      0.2227322931726784	      0.8449270562326623	     -0.1984390538433942	      0.2290118372047446	      0.8405159471960099	     -0.2546800344825882	      0.2147560063141882	      0.4110513228705526	     -0.0907080252401896	      0.5126416007584785	      0.4087355794207336	     -0.3346268442328555	      0.2298690006333780	      0.4115220791321332	     -0.2102299570237464	      0.5095491412408076	      0.4001067823305307	     -0.2084057669710672	      0.0549191766425590	      0.0872579961358155	     -0.1355440890135043	      0.6463956005374455	      0.0799817038017983	     -0.3173944754078059	      0.0686103230684744	      0.0818082382447627	     -0.2048908314090701	      0.6592222300520929	      0.0892409028670459	     -0.2501209897387982	      0.2969972050246318	      1.2363425271431665	     -0.2043728292489563	      0.3996258492548749	      1.1545347621672775	     -0.1536052918127017	      0.4070843009536732	      1.1605670061213154	     -0.2590434797472177	      0.4007316262975929	      1.1576768547728613	     -0.2095935268722303	      0.4019345687715377	      1.0558308420813594	     -0.2178597030789679	      0.3794087774455923	      0.5097789334444006	     -0.0892414071051126	      0.5428940555336718	      0.5780009322054470	     -0.3454739559849501	      0.3323905419399038	      0.5652929481491587	     -0.0685273823831140	      0.5021699961495953	      0.6095307128910520	     -0.2825462066298778	      0.3039602480628132	      0.5136661116127188	     -0.0759893519629890	      0.5195737109216334	      0.5550510449125902	     -0.2726503977591335	      0.2190062298122652	      0.1450366013621247	     -0.1231804852853553	      0.5854211594719692	      0.1736232118845232	     -0.4045755311999592	      0.1442993039310617	      0.1628009036291805	     -0.1504943138031542	      0.6033358431730926	      0.1709479949513588	     -0.3272652421372720	      0.1360048041912234	      0.0511257503071868	     -0.1501266015975431	      0.7453399274886264	      0.1089317201633220	     -0.2939864510592183	
